<?xml version="1.0" encoding="utf-8"?>
<!-- Generator: Adobe Illustrator 18.0.0, SVG Export Plug-In . SVG Version: 6.00 Build 0)  -->
<!DOCTYPE svg PUBLIC "-//W3C//DTD SVG 1.1//EN" "http://www.w3.org/Graphics/SVG/1.1/DTD/svg11.dtd">
<svg version="1.1" xmlns="http://www.w3.org/2000/svg" xmlns:xlink="http://www.w3.org/1999/xlink" x="0px" y="0px"
	 viewBox="0 0 30 30" enable-background="new 0 0 30 30" xml:space="preserve">
<g id="Background_xA0_Image_1_">
</g>
<g id="Row_1_1_">
	<g id="video">
		<g>
			<path fill-rule="evenodd" clip-rule="evenodd" d="M20,12.8V11c0-1.7-1.3-3-3-3H6c-1.7,0-3,1.3-3,3v8c0,1.7,1.3,3,3,3h11
				c1.7,0,3-1.3,3-3v-1.8l7,3.8V9L20,12.8z M18,19c0,0.6-0.4,1-1,1H6c-0.6,0-1-0.4-1-1v-8c0-0.6,0.4-1,1-1h11c0.6,0,1,0.4,1,1V19z
				 M25,17.6L20.2,15l4.8-2.6V17.6z"/>
		</g>
	</g>
</g>
</svg>
