<?xml version="1.0" encoding="utf-8"?>
<!-- Generator: Adobe Illustrator 18.0.0, SVG Export Plug-In . SVG Version: 6.00 Build 0)  -->
<!DOCTYPE svg PUBLIC "-//W3C//DTD SVG 1.1//EN" "http://www.w3.org/Graphics/SVG/1.1/DTD/svg11.dtd">
<svg version="1.1" xmlns="http://www.w3.org/2000/svg" xmlns:xlink="http://www.w3.org/1999/xlink" x="0px" y="0px"
	 viewBox="0 0 30 30" enable-background="new 0 0 30 30" xml:space="preserve">
<g id="Background_xA0_Image_1_">
</g>
<g id="Row_1_1_">
	<g id="cloud">
		<g>
			<path fill-rule="evenodd" clip-rule="evenodd" d="M18,6c-3.9,0-7.2,2.5-8.5,6H9c-3.3,0-6,2.7-6,6c0,3.3,2.7,6,6,6c0,0,0,0,0,0h9
				c5,0,9-4,9-9S23,6,18,6z M18,22H9c-2.2,0-4-1.8-4-4s1.8-4,4-4h2.1c0.5-3.4,3.4-6,6.9-6c3.9,0,7,3.1,7,7S21.9,22,18,22z"/>
		</g>
	</g>
</g>
</svg>
