<?xml version="1.0" encoding="utf-8"?>
<!-- Generator: Adobe Illustrator 18.0.0, SVG Export Plug-In . SVG Version: 6.00 Build 0)  -->
<!DOCTYPE svg PUBLIC "-//W3C//DTD SVG 1.1//EN" "http://www.w3.org/Graphics/SVG/1.1/DTD/svg11.dtd">
<svg version="1.1" xmlns="http://www.w3.org/2000/svg" xmlns:xlink="http://www.w3.org/1999/xlink" x="0px" y="0px"
	 viewBox="0 0 30 30" enable-background="new 0 0 30 30" xml:space="preserve">
<g id="Background_xA0_Image_1_">
</g>
<g id="Row_1_1_">
	<g id="cog">
		<g>
			<path fill-rule="evenodd" clip-rule="evenodd" d="M15,11c-2.2,0-4,1.8-4,4s1.8,4,4,4s4-1.8,4-4S17.2,11,15,11z M15,17
				c-1.1,0-2-0.9-2-2c0-1.1,0.9-2,2-2s2,0.9,2,2C17,16.1,16.1,17,15,17z M24,18c1.7,0,3-1.3,3-3s-1.3-3-3-3h-0.5
				c-0.1-0.3-0.2-0.6-0.4-0.9l0.4-0.4c1.2-1.2,1.2-3.1,0-4.2c-1.2-1.2-3.1-1.2-4.2,0l-0.4,0.4c-0.3-0.1-0.6-0.3-0.9-0.4V6
				c0-1.7-1.3-3-3-3s-3,1.3-3,3v0.5c-0.3,0.1-0.6,0.2-0.9,0.4l-0.4-0.4c-1.2-1.2-3.1-1.2-4.2,0c-1.2,1.2-1.2,3.1,0,4.2l0.4,0.4
				c-0.1,0.3-0.3,0.6-0.4,0.9H6c-1.7,0-3,1.3-3,3s1.3,3,3,3h0.5c0.1,0.3,0.2,0.6,0.4,0.9l-0.4,0.4c-1.2,1.2-1.2,3.1,0,4.2
				c1.2,1.2,3.1,1.2,4.2,0l0.4-0.4c0.3,0.1,0.6,0.3,0.9,0.4V24c0,1.7,1.3,3,3,3s3-1.3,3-3v-0.5c0.3-0.1,0.6-0.2,0.9-0.4l0.4,0.4
				c1.2,1.2,3.1,1.2,4.2,0c1.2-1.2,1.2-3.1,0-4.2l-0.4-0.4c0.1-0.3,0.3-0.6,0.4-0.9H24z M22,20.6L22,20.6c0.4,0.4,0.4,1.1,0,1.5
				s-1,0.4-1.4,0l0,0l-1.4-1.4c-0.9,0.7-2,1.2-3.2,1.3V24c0,0.6-0.4,1-1,1s-1-0.4-1-1v-2.1c-1.2-0.2-2.3-0.6-3.2-1.3L9.4,22l0,0
				c-0.4,0.4-1,0.4-1.4,0s-0.4-1,0-1.4l0,0l1.4-1.4c-0.7-0.9-1.2-2-1.3-3.2H6c-0.6,0-1-0.4-1-1s0.4-1,1-1h2.1
				c0.2-1.2,0.6-2.3,1.3-3.2L8,9.4l0,0c-0.4-0.4-0.4-1,0-1.4s1-0.4,1.4,0l0,0l1.4,1.4c0.9-0.7,2-1.2,3.2-1.3V6c0-0.6,0.4-1,1-1
				s1,0.4,1,1v2.1c1.2,0.2,2.3,0.6,3.2,1.3L20.6,8l0,0c0.4-0.4,1-0.4,1.4,0s0.4,1,0,1.4l0,0l-1.4,1.4c0.7,0.9,1.2,2,1.3,3.2H24
				c0.6,0,1,0.4,1,1s-0.4,1-1,1h-2.1c-0.2,1.2-0.6,2.3-1.3,3.2L22,20.6z"/>
		</g>
	</g>
</g>
</svg>
