<svg xmlns="http://www.w3.org/2000/svg" width="395" height="274"><defs><clipPath id="clip-path"><path class="cls-1" d="M32.74 32.45v195.7h172.7c2.76-14.43 32.67-35.73 78.23-34.48 45.83 1.27 61.05 24.82 67.16 34.48l11.43-.18V32.45z"/></clipPath><clipPath id="clip-path-2"><path class="cls-1" d="M211.23 232.34c-2.44-12.91 1.34-27.8 1.88-29.53 0 0 75.4 2.52 74.14 23.25-.06 1.03-4.31 19.5-8.17 20.73-10.09 3.2-51.3 2.52-51.3 2.5-7.75-.61-14.87-8.05-16.55-16.95z"/></clipPath><clipPath id="clip-path-3"><path class="cls-1" d="M264.05 245.3c.27-2.16.58-4.16-.26-10.76a11.75 11.75 0 00-14.95-10.18c-5.69 1.61-8.48 6.54-9.97 16.15s-1.87 26.78 1.08 35.53c4.08 12.15 10.2 50 10.23 51.17l9.06-.73s4.29-76.93 4.81-81.18z"/></clipPath><clipPath id="clip-path-4"><path class="cls-1" transform="rotate(-87.02 136.1 119.17)" d="M124.09 108.4h24.03v21.53h-24.03z"/></clipPath><clipPath id="clip-path-5"><path class="cls-1" transform="rotate(-87.02 138.6 95.84)" d="M130.22 92.38h16.77v6.9h-16.77z"/></clipPath><clipPath id="clip-path-6"><path class="cls-1" transform="rotate(-87.02 123.6 94.95)" d="M122.2 94.31h2.82v1.29h-2.82z"/></clipPath><clipPath id="clip-path-7"><path class="cls-1" transform="rotate(-87.02 149.85 96.25)" d="M147.96 95.63h3.78v1.23h-3.78z"/></clipPath><clipPath id="clip-path-8"><path class="cls-1" transform="rotate(-87.02 136.53 113.5)" d="M135.94 111.42h1.16v4.16h-1.16z"/></clipPath><clipPath id="clip-path-9"><path class="cls-1" d="M35.14 183.96l24.2.4s2.5 13.1 5.03 27.76c2.06 11.98 4.16 25.7 4.73 28.35l28.94-.32.72-.01 29.67-1.51c1.2-7.45 2.47-35.87 4.84-56.2l24.83-1.79s3.8-48.24-27.33-45.42a1.02 1.02 0 00-.5.19c-9.93-3.44-23.4-7.25-23.4-7.25s-5.9-.53-10.58-.38c-2.35.03-8.9.88-8.9.88l-1.12.3c-4.05 1.07-18.1 4.84-27.12 8.07-27.27-.58-24.01 46.93-24.01 46.93z"/></clipPath><pattern id="Confettis_5" data-name="Confettis 5" width="50.86" height="47.05" patternTransform="translate(190.15 -7.8) scale(.8237)" patternUnits="userSpaceOnUse"><path class="cls-1" d="M0 0h50.86v47.05H0z"/><path class="cls-2" d="M50.84 46.81h50.9v47.52h-50.9z"/><path class="cls-2" d="M-.02 46.81h50.9v47.52H-.02z"/><path class="cls-2" d="M-50.88 46.81H.02v47.52h-50.9zM50.84-.23h50.9v47.52h-50.9z"/><path class="cls-2" d="M-.02-.23h50.9v47.52H-.02z"/><path class="cls-3" d="M12.9 4.84h-1.79L11.09.2h1.81v4.65zM20.4 6.97l-1.47 1.05-2.7-3.82 1.49-1.04 2.68 3.81zM13.66 14.59l-.34-1.77 4.56-.9.35 1.77-4.57.9zM22.65 13.38l-1.38-1.16 3-3.56 1.37 1.16-3 3.56zM27 19.85l-1.8-.17.4-4.63 1.8.16-.4 4.64zM16.94 21.31l.87-1.57L21.89 22 21 23.58l-4.06-2.27zM4.17 7L2.7 8.03.01 4.23 1.5 3.18 4.17 7zM6.42 13.4l-1.38-1.15 3-3.57 1.39 1.17-3 3.55zM10.76 19.87l-1.79-.16.4-4.64 1.8.16-.4 4.64zM.7 21.34l.88-1.57 4.07 2.25-.87 1.58-4.07-2.26zM29.74 4.82h-1.8L27.92.17h1.8v4.65zM37.22 6.95L35.74 8l-2.67-3.82 1.47-1.03 2.68 3.81zM30.5 14.57l-.36-1.77 4.57-.9.35 1.76-4.57.91zM39.48 13.37L38.1 12.2l3-3.56 1.38 1.16-3 3.57zM43.82 19.82l-1.8-.15.4-4.65 1.8.16-.4 4.64zM33.76 21.3l.88-1.59 4.07 2.27-.88 1.57-4.07-2.26zM45.51 4.8h-1.8L43.7.14h1.8l.01 4.66zM46.27 14.54l-.35-1.77 4.57-.9.35 1.78-4.57.9zM12.95 28.43h-1.8l-.02-4.65h1.8l.02 4.65zM20.43 30.56l-1.47 1.04-2.68-3.8 1.47-1.05 2.68 3.81zM13.7 38.18l-.35-1.78 4.57-.9.35 1.77-4.57.9zM22.68 36.97l-1.38-1.16 3-3.56 1.38 1.16-3 3.56zM27.03 43.44l-1.8-.17.41-4.63 1.8.16-.4 4.64zM16.97 44.91l.87-1.58 4.07 2.26-.86 1.57-4.08-2.24zM4.2 30.58l-1.47 1.04-2.69-3.8 1.49-1.04 2.67 3.8zM6.46 37l-1.38-1.17 3-3.56 1.38 1.17-3 3.56zM10.8 43.45L9 43.3l.41-4.64 1.8.16-.4 4.63zM.74 44.93l.88-1.58 4.07 2.27-.88 1.57-4.07-2.26zM29.77 28.4l-1.8.01v-4.66h1.8v4.66zM37.26 30.54l-1.47 1.04-2.69-3.81 1.48-1.04 2.68 3.8zM30.53 38.16l-.35-1.77 4.57-.9.35 1.76-4.57.9zM39.5 36.95l-1.37-1.16 3-3.56 1.38 1.16-3 3.56zM43.85 43.4l-1.79-.15.4-4.64 1.8.16-.4 4.64zM33.8 44.88l.87-1.57 4.07 2.25-.87 1.58-4.08-2.26zM45.54 28.39h-1.8v-4.66h1.8v4.66zM46.3 38.13l-.35-1.77 4.58-.9.34 1.77-4.56.9z"/><path class="cls-2" d="M-50.88-.23H.02v47.52h-50.9z"/><path class="cls-3" d="M-4.55 38.13l-.36-1.77 4.58-.9.34 1.77-4.56.9z"/><path class="cls-2" d="M50.84-47.28h50.9V.24h-50.9z"/><path class="cls-2" d="M-.02-47.28h50.9V.24H-.02z"/><path class="cls-3" d="M16.97-2.13l.87-1.59 4.07 2.26-.86 1.58-4.08-2.25zM.74-2.12l.88-1.57L5.7-1.43 4.8.14.74-2.12zM33.8-2.16l.87-1.58 4.07 2.26L37.87.1 33.8-2.16z"/><path class="cls-2" d="M-50.88-47.28H.02V.24h-50.9z"/></pattern><style>.cls-1{fill:none}.cls-2{fill:#fff}.cls-3{fill:#054752}.cls-18,.cls-23,.cls-27,.cls-30,.cls-40,.cls-45{mix-blend-mode:multiply}.cls-12{fill:#669198}.cls-14{fill:#547b7f}.cls-24{fill:#004753}.cls-16,.cls-18{fill:#eacb92}.cls-17,.cls-45{fill:#af865e}.cls-18{opacity:.67}.cls-21{fill:#9aed66}.cls-26{fill:#aab8c1}.cls-27{fill:#5f003c;opacity:.26}.cls-28{fill:#7a5334}.cls-29{fill:#041e21}.cls-30{opacity:.65}.cls-36,.cls-40{fill:#fce1d8}.cls-37{fill:#f6b241}.cls-41{opacity:.3}.cls-42{fill:#cd9f6f}.cls-45{opacity:.27}.cls-47{fill:#bc9068}.cls-49{fill:#022326}.cls-50{fill:#162d38}</style></defs><g style="isolation:isolate"><g id="Layer_4" data-name="Layer 4"><g clip-path="url(#clip-path)"><path d="M107.94 126.2a6.94 6.94 0 01-6.9-7.73c1.15-9.95 6.39-26.87 28.05-34.15 33.72-11.34 115.04-26.95 133.85-20.53 15.78 5.38 40.57 36.6 44.76 54.34a6.93 6.93 0 01-6.8 8.46z" opacity=".1" fill="#96abc0"/><g opacity=".23"><path d="M336.5 146.47c-.62-8.16-8.1-18.14-17.63-19.33-8.26-1.03-217.44-.66-224.73.25-9.54 1.18-18.36 11.16-18.98 19.33-1.77 23.3-2.66 76.85-2.66 86.31l266.66-.24c0-9.46-.88-63.01-2.66-86.32z" fill="#96abc0"/></g><path fill="#9ea8ad" d="M221.28 87.22l-5.02 63.45L264 149.4l-6.28-66.6-17.86-15.84-18.58 20.25z"/><g style="mix-blend-mode:multiply" opacity=".2"><path d="M204.75 227.28a8.48 8.48 0 004.61 6.18c.33.84.75 1.85.86 2.06a22.55 22.55 0 011.47 2.64 25.72 25.72 0 001.66 3.5c-1 .47-2.06.14-2.8-1.36-.62-1.11-1-2.22-1.53-2.05-.31.15-.06 1.1.54 3.17.52 1.68 1.34 4.3 1.85 6.59.38 1.42-1.03 1.67-1.5.78-.8-1.58-1.88-5.54-2.32-6.2-.15-.26-.4-.1-.38.1.28 1.96 3 6.47 1.46 7.03a.9.9 0 01-.6-.14 2.98 2.98 0 01-.79-1.21c-.05-.17-.12-.33-.2-.5-.68-1.77-1.32-3.56-1.78-4.45-.1-.25-.38-.33-.44-.1a12.42 12.42 0 00.77 2.52c.63 1.8 1.36 3.96.74 4.2-.63.27-1.08-.65-1.6-1.9-.88-2.11-1.68-5.07-1.83-5.18-.14-.06-.38-.05-.3.18.19.77.7 2.78 1 4.16.15.7-.48 1.12-.82.78a59.6 59.6 0 01-2.22-5.9c-1.3-3.55-1.33-7.38-2.5-10.74-.19-.63-.4-1.06-.7-1.8a33.59 33.59 0 007.35-2.36z" fill="#7d3561" opacity=".2"/></g><path class="cls-12" d="M211.23 232.34c-2.44-12.91 1.34-27.8 1.88-29.53 0 0 51.7 5.22 54.03 7.54 5.03-.63 23.88-3.77 22.62 16.96-.06 1.03-6.82 18.26-10.68 19.48-10.08 3.2-51.29 2.52-51.3 2.5-7.75-.61-14.87-8.05-16.55-16.95z"/><g clip-path="url(#clip-path-2)"><path class="cls-14" d="M205.83 221.34c6.03 11.63 6.03 17.28 20.48 17.28s5.65-14.45 25.76-14.45c16.34 0 15.7 25.13 15.7 25.13l-57.24.82z"/></g><path d="M257.65 165.7l-28.92 1.1c-4.26.1-6.78-1.43-9.65-4-.32-.29-2.38 22.44 50.32 13.35.28-.04 2.7-19.84 2.7-19.84s-2.55 9.44-14.45 9.4z" style="mix-blend-mode:multiply" opacity=".5" fill="#004753"/><path class="cls-16" d="M258.98 140.62l27.01 36.43c.05.04 10.47-5.74 11.23-6.1a124.94 124.94 0 00-5.58-12c-.01-.01-.01-.04-.03-.05-5.53-10.8-10.58-22.85-20.07-30.85-.88-.78-9.9 10.39-12.56 12.57zM226.22 145.58l-24.52 44.94c-.04.05-13.88-5.02-14.7-5.24a124.85 124.85 0 013.41-12.8c.02 0 .01-.03.03-.05 3.56-11.6 9.7-28.2 17.65-37.73.74-.93 15.12 9.2 18.13 10.88z"/><path class="cls-17" d="M221.24 131.07a10.54 10.54 0 105.26 13.95 10.54 10.54 0 00-5.26-13.95z"/><path class="cls-16" d="M193.18 179.67a7.81 7.81 0 109.13 6.21 7.84 7.84 0 00-9.13-6.21z"/><path class="cls-16" d="M187.6 195.42c2.73 16.46 6.17 26.12 7.77 29.99.52 1.37.81 1.86 1.07 2.71 1.17 3.36 1.2 7.19 2.5 10.75a59.63 59.63 0 002.22 5.9c.34.34.97-.08.82-.79-.3-1.38-.8-3.39-1-4.16-.08-.22.16-.24.3-.18.15.11.95 3.07 1.84 5.19.51 1.25.96 2.16 1.59 1.9.62-.24-.1-2.4-.74-4.2a12.42 12.42 0 01-.77-2.52c.06-.23.35-.16.44.1.46.89 1.1 2.67 1.79 4.45l.2.5a2.98 2.98 0 00.79 1.2.9.9 0 00.6.14c1.54-.56-1.19-5.07-1.47-7.02-.01-.2.23-.36.38-.11.44.67 1.52 4.63 2.32 6.2.47.9 1.88.65 1.5-.78-.51-2.29-1.33-4.9-1.85-6.59-.6-2.08-.85-3.02-.54-3.16.54-.17.92.93 1.53 2.04.74 1.5 1.8 1.83 2.8 1.36a25.71 25.71 0 01-1.65-3.5 22.55 22.55 0 00-1.48-2.63 35.22 35.22 0 01-1.2-3.04c-3.47-12.73-4.03-31.45-3.96-34.45a32.96 32.96 0 00-1.08-8.61l-15.47 2.05a48.36 48.36 0 00.74 7.26z"/><path class="cls-18" d="M203.39 192.58c.08 1.16.03 4.22.12 6.07.11 2.32 1.57 20.72 2.84 27.74-3.29-5.97-10.37-23.82-8.04-38.2.03-.19-.02.15 0 0 .14-.81.07-.56.25-1.36 4.19-19.39 16.94-38.72 16.94-38.72l.78 15.78-13.67 24.34z"/><path d="M279.84 132.75c-3.87-5.72-7.35-8.87-8.36-9.26a.13.13 0 00-.05-.05c-4.85-2.7-23.77-6.41-23.77-6.41s-5.09-.4-6.9-.33l.04.9-8.6-.17s-18.74 6.88-23.52 9.7c0 .01-9.01 10.65-12.86 24.22l18.84 13.62c3.06 16.93-5.31 42.87-5.31 64.23 69.73-32.04 76.64-14.45 76.64-14.45-8.8-18.85-19.47-30.16-13.67-54.87l16.81-9.84a129.09 129.09 0 00-9.29-17.29z" fill="url(#Confettis_5)"/><path class="cls-2" d="M279.84 132.75c-3.87-5.72-7.35-8.87-8.36-9.26a.13.13 0 00-.05-.05c-4.85-2.7-23.77-6.41-23.77-6.41s-5.09-.4-6.9-.33l.04.9-8.6-.17s-18.74 6.88-23.52 9.7c0 .01-9.01 10.65-12.86 24.22l18.84 13.62c3.06 16.93-5.31 42.87-5.31 64.23 69.73-32.04 76.64-14.45 76.64-14.45-8.8-18.85-19.47-30.16-13.67-54.87l16.81-9.84a129.09 129.09 0 00-9.29-17.29z"/><path class="cls-16" d="M247.12 102.53l-15.76.4.36 11.46c.02.88-4.16 4.87-7.92 6.12-2.46.82 1.88 11.31 15.7 11.31s22.6-11.87 19.48-12.56a131.05 131.05 0 01-11.31-3.15z"/><path d="M270.6 121.2l-7.5-2.14s-50.16 94.8-51.67 96.96c-.32.46-1.3 13.75-1.3 13.75l6.35-.97s52.82-103.19 54.12-107.6z"/><path d="M227.96 117.87s6.07 76.68 15.94 75.52c10.68-1.26 8.8-76.65 8.8-76.65" stroke="#669198" stroke-miterlimit="10" stroke-width="1.26" fill="none"/><path class="cls-18" d="M231.72 103.87c.34.1 3.33 13.97 15.96 12.39l-.58-13.57z"/><path class="cls-12" d="M291.81 263.3c.22-13.25-2.05-39.13-2.05-39.13l-25.95 1.27s.36 8.75 7.23 42.05c3.93 19.04 8.51 42.2 11.36 50.57l9.94-1.88c-1.65-17.49-.87-31.51-.52-52.88z"/><path class="cls-12" d="M289.73 224.12a12.8 12.8 0 11-12.11-13.76 12.93 12.93 0 0112.11 13.76z"/><rect class="cls-21" x="226.31" y="142.5" width="14.88" height="27.59" rx="1.26"/><path class="cls-12" d="M264.05 245.3c.58-6.05-.72-9.98-1.3-12.96-1.26-6.4-7.63-9.76-13.9-7.98-5.7 1.61-8.49 6.54-9.98 16.15s-1.87 26.78 1.08 35.53c4.08 12.15 10.2 50 10.23 51.17l9.06-.73s4.4-76.92 4.81-81.18z"/><g clip-path="url(#clip-path-3)"><path class="cls-14" d="M242.01 229.2c-.62.63 4.4-5.65 14.45-1.26 8.38 3.67 7.54 27.65 7.54 27.65l10.06-10.06 3.14-24.5-23.25-2.51-13.82 1.88z"/></g><path class="cls-16" d="M295.09 167.51a7.81 7.81 0 11-11.04.61 7.81 7.81 0 0111.04-.6z"/><path class="cls-16" d="M290.1 165.07a32.78 32.78 0 00-8.6-1.23c6.67-.04-14.92 1.13-34.38-4.53-.66-.2-2.7-1.1-3.01-1.25a22.59 22.59 0 00-2.61-1.51 25.8 25.8 0 01-3.47-1.72c-.5 1-.18 2.05 1.31 2.82 1.1.63 2.2 1.03 2.03 1.56-.15.31-1.1.04-3.16-.6-1.68-.54-4.28-1.4-6.56-1.95-1.42-.4-1.69 1-.8 1.49 1.56.82 5.5 1.96 6.16 2.43.26.14.08.38-.11.37-1.95-.32-6.42-3.11-7-1.58a.88.88 0 00.13.6 2.9 2.9 0 001.2.8l.49.2c1.76.73 3.54 1.4 4.43 1.87.25.1.32.38.08.44a12.18 12.18 0 01-2.5-.81c-1.79-.66-3.95-1.42-4.2-.8-.26.62.64 1.08 1.89 1.62 2.1.92 5.04 1.77 5.15 1.91.06.15.04.39-.18.3-.77-.2-2.77-.74-4.14-1.07-.7-.15-1.14.47-.8.81a58.67 58.67 0 005.86 2.32c3.55 1.36 7.37 1.45 10.7 2.67.85.28 1.34.58 2.71 1.12 3.84 1.67 13.45 5.26 29.86 8.28a69.14 69.14 0 007.93 1.2M225 88.12c1.76 11.8 6.15 22.86 13.84 23.01 7.06.14 12.08-11.47 13.24-23.35 1.49-15.35-5.23-20.13-13.76-20.13S222.9 74 225 88.12z"/><path class="cls-16" d="M252.1 86.04s1.4-1.28 2.17.38c.2.44.24 1.14.08 3.88-.14 2.45-2.3 3.04-3.28 2.06-.03-.03 1.03-6.32 1.03-6.32z"/><g class="cls-23"><circle class="cls-24" cx="242.63" cy="88.41" r="1.13"/></g><g class="cls-23"><circle class="cls-24" cx="230.49" cy="88.41" r="1.13"/></g><g style="mix-blend-mode:multiply" opacity=".67"><path class="cls-16" d="M234.46 96.54a3.35 3.35 0 004.43.02l-2.96-1.27c.05-.25.37-7.93.4-7.87z"/></g><path class="cls-18" d="M251.7 87.82c-.03.05.04.1.09.07s.07-.07.1-.1a.48.48 0 01.7.02 1.4 1.4 0 01.3.73 2.8 2.8 0 01.02 1.45.96.96 0 01-1.15.67"/><path class="cls-2" d="M241.96 100.91c-1.03-.03-6.98 0-6.98 0 .13 1.27 1.92 2.34 3.58 2.4 1.57.04 3.36-1.25 3.4-2.4z"/><path class="cls-26" d="M221.28 90.98s9.2-2.97 14.36-11.01 3.83-14.92 3.83-14.92-9.05-1.57-14.77 5.88c-4.8 6.25-3.5 17.6-3.42 20.05z"/><path class="cls-26" d="M258.35 91.61s-14.32-5.15-19.48-13.2-5.02-13.18-5.02-13.18 15.23-1.75 20.98 5.7c4.82 6.24 3.6 18.23 3.52 20.68z"/><g id="MASK"><path class="cls-2" d="M225.9 89.75l1.4 2.79.89 5.7-2.22-4.95s-.22.03-.16.4a2.38 2.38 0 00.35.75l2.8 8.2 1.75 2.67a20.14 20.14 0 009.67 1.54c5.37-.52 7.19-3 7.19-3l.55-.81 3.32-9.45a.53.53 0 00-.01-.4c-.08-.2-.27.02-.27.02l-2.93 7.99.96-7.55 1.86-4.8a.52.52 0 00.07-.34c-.07-.29-.2-.14-.2-.14l-2.13 4.38s-7.96 1.35-12.5 1.55a24.49 24.49 0 01-7.7-.81l-2.72-4.44s-.2-.05-.19.3a.68.68 0 00.22.4z"/><path class="cls-27" d="M229.36 96.42a14.62 14.62 0 006.4 1.17 75.6 75.6 0 0011.16-1.3s-6.33 2.28-11.04 2c-4.42-.26-6.52-1.87-6.52-1.87zM229.97 101.88s1.4.75 5.62.64a78.15 78.15 0 0010.27-1.24 37.5 37.5 0 01-9.86 1.88c-4.43.1-6.03-1.28-6.03-1.28z"/></g><path class="cls-28" d="M172.87 177.04a84.48 84.48 0 014.74-12.86 117.46 117.46 0 0010.57-31.94c.16-.88.3-3.75.3-4.2a29.98 29.98 0 01-.25-3.9 32.6 32.6 0 00.02-5c1.43 0 2.47.99 2.51 3.15.1 1.64-.09 3.13.63 3.24.45.01.68-1.24 1.14-4 .34-2.24.84-5.75 1.53-8.7.34-1.88 2.12-1.38 2.18-.08.05 2.28-.9 7.5-.76 8.53.03.38.4.32.5.08.76-2.43.1-9.21 2.21-9a1.14 1.14 0 01.62.5 3.69 3.69 0 01.24 1.85l-.04.68c-.19 2.46-.45 4.9-.4 6.2-.03.35.26.59.46.35a15.95 15.95 0 00.5-3.36c.28-2.44.63-5.38 1.5-5.31.87.05.88 1.36.78 3.11-.15 2.96-.86 6.85-.75 7.06.13.16.42.27.45-.03.2-1.01.73-3.63 1.15-5.42.22-.9 1.19-1.04 1.4-.45a78.29 78.29 0 01-.7 8.12c-.48 4.88-2.58 9.35-3.1 13.92-.16 1.13-.1 1.87-.27 3.77-.28 5.4-3.14 17.81-5.84 30.91-.96 4.7-1.91 7.46-3.48 9.96"/><path class="cls-28" d="M156.24 155.12c5.34 14.02 17 29.7 21.87 32.26 6.59 3.45 8.74 2.34 12.5-2.46s-18.7-36.94-23.12-41.23c-3.8-3.7-12.87 7.17-11.25 11.43z"/><path class="cls-3" d="M164.7 139.3c-9.74-2.07-16.6 12.84-10.48 22.25 6.98 10.72 10.32 13.97 10.32 13.97l11.36-22.02s-9.25-13.8-11.2-14.2z"/><path class="cls-29" d="M132.82 72.68a1.48 1.48 0 01-1.64-1.29l-.68-5.72a1.47 1.47 0 012.93-.34l.68 5.71a1.48 1.48 0 01-1.3 1.64M128.37 74.44a1.48 1.48 0 01-1.4-1.54l.3-5.75a1.47 1.47 0 012.94.15l-.3 5.75a1.48 1.48 0 01-1.54 1.4M137.68 71.04a1.48 1.48 0 01-1.15-1.74l1.18-5.64a1.47 1.47 0 012.88.6l-1.17 5.64a1.48 1.48 0 01-1.74 1.14"/><path class="cls-29" d="M135.13 72.62a1.48 1.48 0 01-1.4-1.55l.3-5.75a1.47 1.47 0 012.95.15l-.3 5.75a1.48 1.48 0 01-1.55 1.4M143.24 71.7a1.48 1.48 0 01-.91-1.88l1.9-5.43a1.47 1.47 0 012.78.97l-1.9 5.44a1.48 1.48 0 01-1.87.9"/><path class="cls-29" d="M141.46 71.9a1.48 1.48 0 01-1.15-1.75l1.16-5.64a1.47 1.47 0 012.89.6l-1.16 5.63a1.48 1.48 0 01-1.74 1.15M144.5 73.14a1.48 1.48 0 01-.57-2l2.79-5.05a1.47 1.47 0 112.58 1.43l-2.8 5.04a1.48 1.48 0 01-2 .57M127.57 86.66a1.48 1.48 0 01-1.28 1.65l-5.7.74a1.47 1.47 0 01-.39-2.92l5.71-.74a1.48 1.48 0 011.66 1.27M129.38 91.09a1.48 1.48 0 01-1.53 1.41l-5.76-.23a1.47 1.47 0 11.12-2.95l5.76.23a1.48 1.48 0 011.41 1.54M128.62 81.7a1.48 1.48 0 01-1.73 1.17l-5.65-1.1a1.47 1.47 0 11.56-2.9l5.66 1.1a1.48 1.48 0 011.16 1.73"/><path class="cls-29" d="M127.47 84.35a1.48 1.48 0 01-1.53 1.4l-5.75-.22a1.47 1.47 0 01.12-2.95l5.75.23a1.48 1.48 0 011.41 1.54M129.08 75.84a1.48 1.48 0 01-1.87.92l-5.46-1.83a1.47 1.47 0 11.94-2.8l5.46 1.84a1.48 1.48 0 01.93 1.87"/><path class="cls-29" d="M127.63 79a1.48 1.48 0 01-2 .6l-5.07-2.73a1.47 1.47 0 011.4-2.6l5.07 2.73a1.48 1.48 0 01.6 2M132.2 71.85a1.48 1.48 0 01-2.07.28l-4.6-3.47a1.47 1.47 0 111.79-2.35l4.6 3.47a1.48 1.48 0 01.28 2.07M130.01 73.72a1.48 1.48 0 01-2 .6l-5.07-2.73a1.47 1.47 0 011.4-2.6l5.07 2.73a1.48 1.48 0 01.6 2M148.1 87.73a1.48 1.48 0 001.1 1.77l5.6 1.33a1.47 1.47 0 10.68-2.87l-5.6-1.33a1.48 1.48 0 00-1.78 1.1M145.83 91.94a1.48 1.48 0 001.38 1.57l5.75.36a1.47 1.47 0 00.19-2.94l-5.75-.37a1.48 1.48 0 00-1.57 1.38M147.56 82.69a1.48 1.48 0 001.6 1.34l5.74-.52a1.47 1.47 0 10-.26-2.93l-5.74.5a1.48 1.48 0 00-1.34 1.6"/><path class="cls-29" d="M148.43 85.44a1.48 1.48 0 001.38 1.56l5.75.37a1.47 1.47 0 00.18-2.95l-5.74-.36a1.48 1.48 0 00-1.57 1.37M147.72 76.8a1.48 1.48 0 001.76 1.12l5.62-1.26a1.47 1.47 0 00-.65-2.88l-5.62 1.26a1.48 1.48 0 00-1.11 1.77"/><path class="cls-29" d="M148.83 80.1a1.48 1.48 0 001.93.8l5.32-2.19a1.47 1.47 0 00-1.12-2.72l-5.32 2.19a1.48 1.48 0 00-.8 1.92M145.03 72.51a1.48 1.48 0 002.02.5l4.93-2.97a1.47 1.47 0 10-1.52-2.53l-4.93 2.98a1.48 1.48 0 00-.5 2.02M147.01 74.6a1.48 1.48 0 001.93.8l5.32-2.19a1.47 1.47 0 00-1.12-2.72l-5.33 2.19a1.48 1.48 0 00-.8 1.92"/><path class="cls-28" d="M146.68 105.13l-20.79-.33-1.41 37.96 21.97 4.63.23-42.26z"/><path class="cls-28" d="M128.62 125.95l-16.42 7.08s-.16 18.3 22.27 19.47 25-15.55 25-15.55l-14.6-10.57z"/><g class="cls-30"><g clip-path="url(#clip-path-4)"><path class="cls-28" d="M125.9 108.03c.5.2-.5 22.7 20.33 23.7l.32-24.05z"/></g></g><path class="cls-28" d="M135.39 118.45c-6.95-.36-12.26-7.84-11.9-14.8l1.2-23.2A10.78 10.78 0 01136 70.29l3.8.2a10.78 10.78 0 0110.17 11.29l-1.2 23.2c-.37 6.95-6.43 13.84-13.37 13.48"/><path class="cls-29" d="M130.05 84.68c1.14-1.3 3.19-1.43 4.69.39M142.05 85.6a3.1 3.1 0 014.9.32"/><path class="cls-28" d="M125.07 92.54s-1.75-2.46-2.82-.88c-.27.4-.25 2.3-.18 4.9.05 1.7.8 2.97 1.97 2.13.04-.03 1.03-6.15 1.03-6.15M148.23 93.84s1.89-2.37 2.86-.73c.26.42.13 2.32-.09 4.9-.14 1.7-.96 2.93-2.08 2.02-.03-.03-.69-6.2-.69-6.2"/><path class="cls-29" d="M129.06 90.69c.77-1.16 6.03.3 7.01 2.66M140.74 94.15c1.38-3.33 5.26-4.79 6.22-3.42"/><g class="cls-30"><g clip-path="url(#clip-path-5)"><path class="cls-28" d="M141.9 99c-.49 9.3-7.1 3.38-7.1 3.38l3.37.28c-.04-.26.64-15.28.6-15.21 0 0 3.64 1.64 3.12 11.55"/></g></g><path class="cls-2" d="M141.38 105.82c-.08.2-1.51 3.23-4.54 2.85-4.64-.58-4.68-3.6-4.68-3.6z"/><path class="cls-29" d="M123.56 91.5s2.41 2.25 2.93-.78l1.94-11.17A4.89 4.89 0 01133 75.5c3.97-.21 10.97-.1 12.6 2.08 3.04 4.04-.88 15.48 4.14 15.03 2.5-.23.43-12.84.07-17.82-.26-3.58-6.69-7.18-15.78-6.54-7.29.51-9.98 7.04-9.98 7.04z"/><g class="cls-23"><g clip-path="url(#clip-path-6)"><path class="cls-28" d="M124.05 93.69a.58.58 0 00-.85.13 1.67 1.67 0 00-.23.94 2.19 2.19 0 00.18 1.2.75.75 0 001.03.31"/></g></g><g class="cls-23"><g clip-path="url(#clip-path-7)"><path class="cls-28" d="M149.47 94.33a1.8 1.8 0 01.92 1.2 3.29 3.29 0 01-.03 1.53 1.65 1.65 0 01-.38.82.7.7 0 01-.83.15"/></g></g><g class="cls-23"><g clip-path="url(#clip-path-8)"><path class="cls-28" d="M134.42 113.98a2.56 2.56 0 014.16.03"/></g></g><g id="MASK-2" data-name="MASK"><path class="cls-2" d="M125.1 92.65l1.64 6.7.48 11.23-3.54-11.6s-.2 0-.2.34a2.17 2.17 0 00.22.73l3.42 11.87.17 1.32s3.98 5.11 8.85 5.34 8-4.04 8-4.04l.19-.79 4.65-12.77a.48.48 0 00.03-.37c-.04-.19-.24-.01-.24-.01l-4.1 11.52 1.35-10.14 3.14-8.67a.47.47 0 00.1-.3c-.02-.27-.15-.15-.15-.15l-3.33 8.26s-5.66-.67-9.74-1.08-8.45-.88-8.45-.88l-2.43-7.14s-.18-.07-.2.24a.62.62 0 00.13.39z"/><path class="cls-27" d="M129.8 102.85a48.9 48.9 0 006.4 1.48 31.2 31.2 0 007.91.05 21.4 21.4 0 01-7.68.45 19.74 19.74 0 01-6.62-1.98zM129.71 107.8a48.9 48.9 0 006.4 1.47 31.2 31.2 0 007.91.05 21.4 21.4 0 01-7.68.46 19.74 19.74 0 01-6.63-1.98zM129.5 111.87a42.37 42.37 0 005.92 1.58 26.1 26.1 0 007.3.14 17.86 17.86 0 01-7.08.38 17.44 17.44 0 01-6.14-2.1z"/></g><path class="cls-3" d="M165.46 139.55c0-.03-13.76-8.22-13.76-8.22s2.57 5.14-15.24 4.21-16.36-6.27-16.36-6.27-12.08 3.34-17.6 6.05a.15.15 0 00-.05.05c-1.14.37-6.63 15.12-8.26 34.7-2.21 26.58-1.15 71.5-1.15 71.5l79.03 6.52s-2.3-92.73-6.6-108.54z"/><path d="M109.65 131.33l7.6-1.76s45.17 97.27 46.57 99.52a1.64 1.64 0 01.2 1.03l-5.67 6.75s-47.63-101.08-48.7-105.54z"/><path class="cls-28" d="M112.52 189.54a67.08 67.08 0 015.65 9.3 93.28 93.28 0 0014.63 22.36c.47.53 2.18 2.04 2.47 2.27a23.8 23.8 0 012.54 1.76 25.88 25.88 0 003.1 2.48c-.71.9-1.83 1.06-3.2.01-1.06-.75-1.9-1.6-2.32-1.2-.23.26.43 1.03 1.92 2.67 1.23 1.33 3.16 3.37 4.66 5.26 1 1.14-.2 2-1.04 1.4-1.43-1.1-4.21-4.28-4.92-4.7-.25-.17-.4.1-.3.27 1.14 1.68 5.67 4.63 4.5 5.83a.9.9 0 01-.61.14 2.93 2.93 0 01-1.27-.76l-.4-.37c-1.44-1.33-2.83-2.7-3.66-3.3-.2-.2-.5-.14-.45.1a12.66 12.66 0 001.84 1.97c1.39 1.38 3.04 3.06 2.57 3.56-.46.52-1.29-.13-2.32-1.05-1.77-1.55-3.84-3.93-4.02-3.96-.16 0-.38.13-.2.3.52.62 1.89 2.25 2.8 3.39.44.58.06 1.25-.41 1.09a62.12 62.12 0 01-4.7-4.45c-2.8-2.7-4.54-6.22-7.13-8.8-.62-.67-1.11-1-2.21-2.03-3.21-2.85-9.52-10.76-16.33-18.91-2.44-2.92-3.69-4.88-4.47-7.1"/><path class="cls-28" d="M91.1 157.07c-.77 14.98 3.54 34.04 6.97 38.35 4.63 5.82 7.05 5.68 12.41 2.8s-2.16-41.34-4.46-47.05c-1.99-4.92-14.68 1.35-14.92 5.9z"/><path class="cls-3" d="M99.9 136.23c-7.27 4-8.57 11.32-9.6 22.5-1.19 12.74-.6 17.36-.6 17.36l27.73-3.57s-1.1-45.35-17.54-36.29z"/><path class="cls-36" d="M54.18 160.66l9.18 28.99-3.2 27.06c-.04.07-17.83 5.08-18.91 5.2a170.26 170.26 0 01-3.33-21.42c.01-.01 0-.04 0-.07-1.3-15.62-1.6-17.05 3.36-32.3.43-1.47 8.48-8.03 12.9-7.46z"/><path class="cls-36" d="M40.96 227.34c3.52 21.15 7.94 33.57 10 38.54.67 1.77 1.05 2.4 1.38 3.49 1.5 4.32 1.54 9.23 3.2 13.8a76.61 76.61 0 002.86 7.59c.44.43 1.25-.1 1.06-1.01-.4-1.78-1.04-4.36-1.29-5.35-.1-.29.2-.3.39-.23.18.14 1.22 3.95 2.36 6.66.66 1.6 1.23 2.78 2.04 2.45.8-.31-.13-3.1-.95-5.4a15.96 15.96 0 01-.99-3.24c.08-.3.45-.2.57.12.6 1.15 1.4 3.44 2.3 5.73.09.21.18.42.25.63a3.83 3.83 0 001.02 1.56 1.16 1.16 0 00.77.18c1.97-.73-1.53-6.52-1.88-9.03-.02-.25.29-.47.48-.14.57.86 1.96 5.95 2.98 7.98.6 1.14 2.42.82 1.93-1.01-.66-2.95-1.7-6.3-2.37-8.47-.77-2.67-1.1-3.88-.7-4.07.7-.21 1.18 1.2 1.97 2.63.95 1.93 2.3 2.35 3.6 1.74a33.06 33.06 0 01-2.13-4.48 29 29 0 00-1.9-3.4c-.2-.4-1.3-3.04-1.54-3.9-4.47-16.35-5.18-40.4-5.1-44.26a42.36 42.36 0 00-1.38-11.07L40.01 218a62.16 62.16 0 00.95 9.33z"/><path class="cls-37" d="M122.83 97.48c-1.35 6.32-4.31 12.27-10.09 15.17 5.41 2.34 6.98 9.6 5.33 15.27-2.52 8.66-10.58 14.94-19.3 17.24s-18.02 1.15-26.75-1.12c-6.77-1.76-13.52-4.27-18.82-8.83a34.86 34.86 0 01-9.05-12.66A21.98 21.98 0 0142 112.2c.51-6.35 5.35-11.9 11.32-14.13s12.82-1.37 18.55 1.42c-4.6-.83-10.27-2.53-11.74-6.96s-.05-10.45 4.56-12.67c3.7-1.78 10.63-.37 14.48 2.06-13.94-3.56-8.6-21.28 4.16-18.02 8.99 2.3 13.23 2.93 21.36 5 17.75 4.54 19.3 23.12 18.14 28.58z"/><path d="M76.85 112.14a4.92 4.92 0 01.3 2.26 4.37 4.37 0 01-1.99 2.31 59.62 59.62 0 00-10.07 9.32c-2.56 3-4.94 6.63-4.54 10.55.38 3.83 3.49 7.02 7.11 8.33s7.65 1 11.38.06a19.73 19.73 0 008.99-4.57 22.4 22.4 0 005.09-8.81 61.18 61.18 0 003.41-24.27C96.2 101.92 93 89.6 85.1 93.58c-5.54 2.79-9.75 12.77-8.24 18.56z" style="mix-blend-mode:multiply" fill="#f6b241"/><g clip-path="url(#clip-path-9)"><path class="cls-2" d="M35.14 183.96l24.2.4s2.5 13.1 5.03 27.76c2.06 11.98 4.16 25.7 4.73 28.35l28.94-.32.72-.01 29.67-1.51c1.2-7.45 2.47-35.87 4.84-56.2l24.83-1.79s3.8-48.24-27.33-45.42a1.02 1.02 0 00-.5.19c-9.93-3.44-23.4-7.25-23.4-7.25s-5.9-.53-10.58-.38c-2.35.03-8.9.88-8.9.88l-1.12.3c-4.05 1.07-18.1 4.84-27.12 8.07-27.27-.58-24.01 46.93-24.01 46.93z"/><path class="cls-3" d="M150.65 130.81a3.07 3.07 0 003.07 3.07 3.07 3.07 0 003.06-3.07v-4.09a3.07 3.07 0 00-3.06-3.06 3.07 3.07 0 00-3.07 3.06zM114.8 153.73a2.82 2.82 0 003.06 2.47 2.82 2.82 0 003.07-2.47v-3.3a2.82 2.82 0 00-3.07-2.47 2.82 2.82 0 00-3.06 2.47zM103.16 134.54a2.82 2.82 0 003.07 2.47 2.82 2.82 0 003.06-2.47v-3.3a2.82 2.82 0 00-3.06-2.47 2.82 2.82 0 00-3.07 2.47zM136.32 149.77a2.82 2.82 0 003.07 2.47 2.82 2.82 0 003.06-2.47v-3.3a2.82 2.82 0 00-3.06-2.47 2.82 2.82 0 00-3.07 2.47zM127.52 139.91c0 2.15 1.37 3.88 3.06 3.88 1.7 0 3.07-1.73 3.07-3.88v-5.17c0-2.15-1.38-3.89-3.07-3.89s-3.06 1.74-3.06 3.89zM150.65 159.38a3.07 3.07 0 003.07 3.07 3.07 3.07 0 003.06-3.07v-4.09a3.07 3.07 0 00-3.06-3.06 3.07 3.07 0 00-3.07 3.06zM113.88 178.6a2.82 2.82 0 003.06 2.48 2.82 2.82 0 003.07-2.47v-3.3a2.82 2.82 0 00-3.07-2.46 2.82 2.82 0 00-3.06 2.47zM97.53 156.11a2.82 2.82 0 003.06 2.47 2.82 2.82 0 003.07-2.47v-3.3a2.82 2.82 0 00-3.07-2.46 2.82 2.82 0 00-3.06 2.47zM136.32 178.34a2.82 2.82 0 003.07 2.47 2.82 2.82 0 003.06-2.47v-3.3a2.82 2.82 0 00-3.06-2.46 2.82 2.82 0 00-3.07 2.47zM127.52 168.49c0 2.14 1.37 3.88 3.06 3.88 1.7 0 3.07-1.74 3.07-3.88v-5.18c0-2.14-1.38-3.88-3.07-3.88s-3.06 1.74-3.06 3.88zM100.21 176.1c0 2.15 1.37 3.89 3.06 3.89 1.7 0 3.07-1.74 3.07-3.88v-5.18c0-2.14-1.37-3.88-3.07-3.88-1.69 0-3.06 1.74-3.06 3.88zM83.06 139.44a3.06 3.06 0 003.07 3.07 3.06 3.06 0 003.06-3.07v-4.09a3.06 3.06 0 00-3.06-3.06 3.06 3.06 0 00-3.07 3.06zM71.47 142.34a3.06 3.06 0 003.06 3.07 3.06 3.06 0 003.07-3.07v-4.09a3.06 3.06 0 00-3.07-3.06 3.06 3.06 0 00-3.06 3.06zM45.38 153.94a3.06 3.06 0 003.07 3.06 3.06 3.06 0 003.06-3.06v-4.1a3.06 3.06 0 00-3.06-3.06 3.06 3.06 0 00-3.07 3.07zM83.06 168.45a3.06 3.06 0 003.07 3.07 3.06 3.06 0 003.06-3.07v-4.09a3.06 3.06 0 00-3.06-3.06 3.06 3.06 0 00-3.07 3.06zM46.29 178.6a2.82 2.82 0 003.06 2.48 2.82 2.82 0 003.07-2.47v-3.3a2.82 2.82 0 00-3.07-2.46 2.82 2.82 0 00-3.06 2.47zM68.73 178.34a2.82 2.82 0 003.07 2.47 2.82 2.82 0 003.07-2.47v-3.3a2.82 2.82 0 00-3.07-2.46 2.82 2.82 0 00-3.07 2.47zM59.93 168.49c0 2.14 1.37 3.88 3.07 3.88 1.69 0 3.06-1.74 3.06-3.88v-5.18c0-2.14-1.37-3.88-3.06-3.88-1.7 0-3.07 1.74-3.07 3.88zM32.62 176.1c0 2.15 1.37 3.89 3.07 3.89 1.69 0 3.06-1.74 3.06-3.88v-5.18c0-2.14-1.37-3.88-3.06-3.88-1.7 0-3.07 1.74-3.07 3.88zM150.65 186.58a3.07 3.07 0 003.07 3.06 3.07 3.07 0 003.06-3.06v-4.1a3.07 3.07 0 00-3.06-3.05 3.07 3.07 0 00-3.07 3.06zM114.8 209.5a2.82 2.82 0 003.06 2.46 2.82 2.82 0 003.07-2.47v-3.29a2.82 2.82 0 00-3.07-2.47 2.82 2.82 0 00-3.06 2.47zM103.16 193.93a2.82 2.82 0 003.07 2.46 2.82 2.82 0 003.06-2.46v-3.3a2.82 2.82 0 00-3.06-2.47 2.82 2.82 0 00-3.07 2.47zM136.32 205.53a2.82 2.82 0 003.07 2.47 2.82 2.82 0 003.06-2.47v-3.29a2.82 2.82 0 00-3.06-2.47 2.82 2.82 0 00-3.07 2.47zM127.52 195.68c0 2.14 1.37 3.88 3.06 3.88 1.7 0 3.07-1.74 3.07-3.88v-5.18c0-2.14-1.38-3.88-3.07-3.88s-3.06 1.74-3.06 3.88zM150.65 215.15a3.07 3.07 0 003.07 3.06 3.07 3.07 0 003.06-3.06v-4.09a3.07 3.07 0 00-3.06-3.06 3.07 3.07 0 00-3.07 3.06zM113.88 234.38a2.82 2.82 0 003.06 2.46 2.82 2.82 0 003.07-2.46v-3.3a2.82 2.82 0 00-3.07-2.47 2.82 2.82 0 00-3.06 2.47zM97.53 211.88a2.82 2.82 0 003.06 2.46 2.82 2.82 0 003.07-2.46v-3.3a2.82 2.82 0 00-3.07-2.47 2.82 2.82 0 00-3.06 2.47zM136.32 234.1a2.82 2.82 0 003.07 2.47 2.82 2.82 0 003.06-2.46v-3.3a2.82 2.82 0 00-3.06-2.47 2.82 2.82 0 00-3.07 2.47zM127.52 224.25c0 2.15 1.37 3.88 3.06 3.88 1.7 0 3.07-1.73 3.07-3.88v-5.17c0-2.15-1.38-3.89-3.07-3.89s-3.06 1.74-3.06 3.89zM100.21 231.87c0 2.15 1.37 3.88 3.06 3.88 1.7 0 3.07-1.73 3.07-3.88v-5.17c0-2.15-1.37-3.89-3.07-3.89-1.69 0-3.06 1.74-3.06 3.89zM83.06 197.46a3.06 3.06 0 003.07 3.06 3.06 3.06 0 003.06-3.06v-4.1a3.06 3.06 0 00-3.06-3.06 3.06 3.06 0 00-3.07 3.07zM47.21 209.5a2.82 2.82 0 003.07 2.46 2.82 2.82 0 003.06-2.47v-3.29a2.82 2.82 0 00-3.06-2.47 2.82 2.82 0 00-3.07 2.47zM35.57 190.3a2.82 2.82 0 003.06 2.47 2.82 2.82 0 003.07-2.47v-3.29a2.82 2.82 0 00-3.07-2.47 2.82 2.82 0 00-3.06 2.47zM68.73 205.53A2.82 2.82 0 0071.8 208a2.82 2.82 0 003.07-2.47v-3.29a2.82 2.82 0 00-3.07-2.47 2.82 2.82 0 00-3.07 2.47zM59.93 195.68c0 2.14 1.37 3.88 3.07 3.88 1.69 0 3.06-1.74 3.06-3.88v-5.18c0-2.14-1.37-3.88-3.06-3.88-1.7 0-3.07 1.74-3.07 3.88zM83.06 226.47a3.06 3.06 0 003.07 3.06 3.06 3.06 0 003.06-3.06v-4.1a3.06 3.06 0 00-3.06-3.06 3.06 3.06 0 00-3.07 3.07zM46.29 234.38a2.82 2.82 0 003.06 2.46 2.82 2.82 0 003.07-2.46v-3.3a2.82 2.82 0 00-3.07-2.47 2.82 2.82 0 00-3.06 2.47zM29.94 211.88a2.82 2.82 0 003.07 2.46 2.82 2.82 0 003.06-2.46v-3.3a2.82 2.82 0 00-3.06-2.47 2.82 2.82 0 00-3.07 2.47zM68.73 234.1a2.82 2.82 0 003.07 2.47 2.82 2.82 0 003.07-2.46v-3.3a2.82 2.82 0 00-3.07-2.47 2.82 2.82 0 00-3.07 2.47zM59.93 224.25c0 2.15 1.37 3.88 3.07 3.88 1.69 0 3.06-1.73 3.06-3.88v-5.17c0-2.15-1.37-3.89-3.06-3.89-1.7 0-3.07 1.74-3.07 3.89zM32.62 231.87c0 2.15 1.37 3.88 3.07 3.88 1.69 0 3.06-1.73 3.06-3.88v-5.17c0-2.15-1.37-3.89-3.06-3.89-1.7 0-3.07 1.74-3.07 3.89z"/></g><path class="cls-36" d="M103.14 136.28s.66 19.75-.25 23.16-2.02 4.13-4.34 4.13-2.98-2.33-3.58-4.3-3.2-22.37-3.2-22.37a8.08 8.08 0 004.79 1.4 13.37 13.37 0 006.58-2.02z"/><path d="M59.23 136.6l10.56-3.5s52.7 100.76 54.28 103.05c.34.49.51.32.51.32l-8.25 8.67S60.6 141.24 59.23 136.6z"/><path class="cls-36" d="M89.17 108.39l15.62 3.08 2.43 26.03-22.8 1.92 4.75-31.03z"/><path class="cls-40" d="M105.36 117.07c-.55.11-.45 6.14-18.4 6.12L89 110z"/><path class="cls-36" d="M85.07 97.66c.18 13.33 3.37 26.24 11.87 27.57 7.8 1.22 15.1-10.89 18.17-23.87 3.97-16.78-2.76-23.08-12.2-24.36s-18.05 4.7-17.84 20.66z"/><g class="cls-23"><path class="cls-36" d="M101.5 106.41c-.02-.28-.13-9.69-.18-9.62 0 0 4.43.8 3.94 6.29-.7 7.95-8.29 3.22-8.29 3.22"/></g><g class="cls-41"><path d="M114.74 91.72c-1.01-1.7-6.83-3.1-8.64-1.03"/></g><g class="cls-41"><path d="M100.09 90.82c-2.06-2.56-7.5-3-8.97-1.12"/></g><path d="M96.01 97.44a.8.8 0 00.18 0 .8.8 0 00.66-.92c-.15-.95-.91-2.74-2.72-2.86h-.08a2.54 2.54 0 00-2.75 2.09.8.8 0 001.57.26.95.95 0 011.12-.76h.03c1 .07 1.25 1.5 1.26 1.52a.8.8 0 00.73.67zM111.9 100.42a.78.78 0 00.15 0 .8.8 0 00.7-.88c-.1-.97-.76-2.81-2.6-2.94h-.08a2.76 2.76 0 00-2.87 2.07.8.8 0 001.56.37 1.15 1.15 0 011.25-.84h.03c.95.06 1.12 1.45 1.13 1.5a.8.8 0 00.74.72z"/><g id="MASK-3" data-name="MASK"><path class="cls-2" d="M86.06 95.7l1.06 7.05.26 9.18-2.29-9.58s-.25-.01-.27.38a2.37 2.37 0 00.23.86l2.12 9.9.12 1.53a26.83 26.83 0 0011 3.75 24.08 24.08 0 009.9-.94l.29-.9 5.07-8.55a.53.53 0 00.07-.43c-.03-.23-.3-.03-.3-.03l-4.3 7.12 1.99-8.2 3.38-5.65a.54.54 0 00.15-.34c-.02-.32-.18-.19-.18-.19l-3.59 5.18s-7.02-1.09-12.09-1.79-10.48-1.47-10.48-1.47l-2-7.6s-.23-.1-.28.26a.68.68 0 00.14.46z"/><path class="cls-27" d="M90.7 106.99a64.21 64.21 0 007.89 2.05 41.89 41.89 0 009.87.5 28.8 28.8 0 01-9.62.1A25.61 25.61 0 0190.7 107zM90.24 112.72a64.22 64.22 0 007.88 2.06 41.9 41.9 0 009.88.48 28.8 28.8 0 01-9.63.12 25.6 25.6 0 01-8.13-2.66z"/></g><path class="cls-36" d="M113.33 107.92c.82.31 1.88-.45 2.37-1.7l1.2-3.13c.48-1.25.2-2.54-.61-2.85-.82-.32-1.89.45-2.37 1.7l-1.2 3.12c-.49 1.26-.21 2.54.6 2.86M84.75 102.5c.87 0 1.59-1.1 1.59-2.45v-3.34c0-1.35-.72-2.45-1.59-2.45-.87 0-1.58 1.1-1.58 2.45v3.34c0 1.34.71 2.44 1.58 2.44"/><path class="cls-37" d="M118.18 93.56c-.92.1-34.4-2.86-34.4-2.86s4.67-15.96 17.64-16.02c27.07-.12 16.76 18.88 16.76 18.88z"/><path class="cls-36" d="M117.5 131.3l-10.63-3.14-20.9.71-11.88 3.52s8.71 17.54 22.5 17.54c13.83 0 20.91-18.06 20.9-18.63z"/><path class="cls-40" d="M55.08 163.62l7.18 36.02-2 16.12 1.06 20.78s-5.67-8.74-11.19-26.49c-6.24-20.01 4.95-46.43 4.95-46.43z"/><path class="cls-36" d="M131.18 182.5l-1.3 36.8c.02.08 18.09 3.99 19.17 4.2a136.71 136.71 0 004.3-18.72c-.02-.02 0-.05-.02-.08 2.51-15.53 2.42-19 2.14-23.8-.02-.24-19.83 1.37-24.29 1.6z"/><path class="cls-36" d="M148.26 229.45c-4.56 20.95-9.59 33.13-11.9 38-.75 1.73-1.15 2.34-1.54 3.41-1.7 4.24-2 9.15-3.88 13.63a76.61 76.61 0 01-3.23 7.43c-.46.42-1.24-.16-1-1.06.47-1.75 1.25-4.3 1.55-5.27.12-.29-.19-.32-.38-.25-.2.13-1.41 3.88-2.69 6.54-.73 1.57-1.37 2.71-2.16 2.34-.78-.35.3-3.09 1.22-5.35a15.96 15.96 0 001.14-3.18c-.06-.3-.43-.23-.56.1-.66 1.1-1.58 3.36-2.59 5.6-.1.2-.2.4-.28.62a3.83 3.83 0 01-1.1 1.5 1.16 1.16 0 01-.77.14c-1.94-.82 1.84-6.43 2.33-8.92.03-.25-.27-.48-.48-.16-.61.82-2.25 5.84-3.37 7.81-.67 1.11-2.46.7-1.88-1.1.8-2.9 2.02-6.21 2.79-8.34.9-2.63 1.29-3.82.9-4.03-.68-.25-1.24 1.15-2.1 2.53-1.04 1.88-2.42 2.24-3.68 1.56a33.07 33.07 0 002.35-4.37 28.99 28.99 0 012.06-3.3c.21-.39 1.45-2.97 1.73-3.81 5.27-16.12 7.17-40.11 7.27-43.96a42.35 42.35 0 011.93-11l19.73 3.62a62.16 62.16 0 01-1.41 9.27z"/><path class="cls-40" d="M137.8 163.87l-6.62 18.92-3.19 49.33s9.61-5.75 15.14-23.5c6.24-20-5.34-44.75-5.34-44.75z"/><g id="DRVR"><g id="body"><path class="cls-17" d="M323.75 158.8l7.4 72.22c.03.07 20.46 5.42 21.65 5.58.13-.1 1.92-12.08 3-22.98-.02-.02 0-.05 0-.09 1.69-17.1 2.1-40.28-3.07-57.08-.45-1.62-24.13 1.82-28.98 2.36"/><path class="cls-42" d="M323.75 158.8l7.4 72.22c.03.07 20.46 5.42 21.65 5.58.13-.1 1.92-12.08 3-22.98-.02-.02 0-.05 0-.09 1.69-17.1 2.1-40.28-3.07-57.08-.45-1.62-24.13 1.82-28.98 2.36M249.34 156.05l-16.43 70.7c-.05.07-20.98 2.81-22.19 2.82-.12-.11-.38-12.23-.08-23.18.02-.01 0-.05.02-.08.47-17.18 2.97-40.23 10.22-56.25.65-1.55 23.71 4.85 28.46 6"/><path d="M242.32 185.16l-9.36 43c-.05.07-19.3 3.87-19.3 3.87z" style="mix-blend-mode:multiply" opacity=".4" fill="#af865e"/><path d="M210.72 180.63s3.66-15.55 7.2-25.31c6.39-17.58 19.34-27.52 28.1-27.12l.24.26c8.97-4.36 32.15-7.75 32.15-7.75s5.3.97 9.65 1.6a69.28 69.28 0 0011.16-.72s23.52 3.81 37.23 12.33c3.6 1.5 14.04 9.43 18.7 17.04 6.87 11.22 4.86 38.77 4.86 38.77l-30.94-.44c-4.3 24.73-7.26 61.72-8.69 67.75l-35.02-1.5-43.1-1.95c-.87-6.16.45-43.7-1.26-68.76z" fill="#2ed1ff"/><path class="cls-45" d="M332.43 166.82l-8.56 20.33-4.58 52.62s9.81-4.64 17.06-23.75c8.19-21.55-3.92-49.2-3.92-49.2zM238.62 162.55l6.67 21.03-.21 52.81s-9.35-5.51-14.83-25.2c-6.2-22.2 8.37-48.64 8.37-48.64z"/><path d="M328.35 188.63l-8.22 66.45-11.07 21.07s-31 14.48-31.94-7.93c-1.45-34.42 51.23-79.59 51.23-79.59z" fill="#8f405f" opacity=".2"/><path d="M319.6 126.78s-64.69 78.84-78.81 121.21l14.54.23S310.3 162.6 335.89 133c0 0-9.55-3.99-16.3-6.22z"/><g id="Head"><rect class="cls-29" x="282.96" y="57.44" width="21.06" height="43.33" rx="9.22" transform="rotate(175.34 293.49 79.1)"/><rect class="cls-29" x="257.77" y="59.49" width="21.06" height="43.33" rx="8.29" transform="rotate(175.34 268.3 81.16)"/><rect class="cls-29" x="262.64" y="47.37" width="21.06" height="43.33" rx="8.29" transform="rotate(175.34 273.16 69.03)"/><rect class="cls-29" x="274.63" y="42.94" width="21.06" height="43.33" rx="9.22" transform="rotate(175.34 285.15 64.6)"/><path class="cls-42" d="M267.94 122.43a16.85 16.85 0 00.85 3.63c1.25 3.55 4.25 8.54 11.3 9.13a5.57 5.57 0 001.14-.02c.05.02.05.02.1-.03.05.03.07 0 .07 0h.03c12.87.6 16.62-6.15 17.47-11.61 2.05-13.39-2.36-34.95-2.36-34.95l-28.62 10.37.01 16.94z"/><path class="cls-47" d="M290.22 111.59c-.37.13-7.8 13.92-22.03 12.4 0 0-.37-10.29-.21-13.87.13-2.93 1.21-12.14 1.21-12.14z"/><path class="cls-42" d="M299.18 95.72s1.31-19.3-5.67-28.98c-10.07-13.97-28.3-6.55-31.54 1.64-4.44 11.19 1.09 33.78 1.09 33.78z"/><path class="cls-42" d="M260.6 83.52l1.12 8.02c1.28 13.99 3.58 25.4 15.12 26.17a24.4 24.4 0 004.53-.17l-2.98-41.87-2.69.2-3.42.3-4.28.3c-3.02.3-5.82 1.93-6.73 4.48a5.74 5.74 0 00-.62 2.38z"/><path class="cls-42" d="M298.2 81.33v8.1c.23 7.83-1.35 25.74-12.65 28.13a17.32 17.32 0 01-3.96.43l-3.42-41.83 4-.27 3.42-.19 4.26-.29c3.06-.16 6.04 1.08 7.3 3.46a6.09 6.09 0 01.97 2.28z"/><path class="cls-2" d="M270.69 102.22c2.5-.24 16.97-1.08 16.97-1.08-.1 3.1-4.3 5.98-8.34 6.35-3.8.36-8.35-2.5-8.63-5.27z"/><path class="cls-47" d="M275.14 86.3s.48 13.16.61 13.37c.7 1.02 5.5.88 5.5.88s-5.9 5.12-11.16 1.93c-5.3-3.18-8.5-17.56 5.05-16.18z"/><path d="M294.12 108s-22.55 1.29-28.44 1.66c-.14 0 4.54 11.68 12.99 10.9 10.11-.92 15.45-12.56 15.45-12.56z" fill="#736449"/><path class="cls-29" d="M271.94 66.17c.04 2.7-.36 5.61-2.3 7.63s-5.82 2.5-7.55.34a6.37 6.37 0 01-1.05-3.83c-.2-4.68.58-9.85 4.29-13.03 6.2-5.31 19.44-7.82 23 1.3 4.15 10.69-16.34 10.75-16.39 7.6z"/><rect class="cls-42" x="297.22" y="88.18" width="4.44" height="7.48" rx="2.22" transform="rotate(176.75 299.44 91.92)"/><path class="cls-47" d="M298.13 90.78a2.3 2.3 0 012 1.77c.13.94-.83 1.95-1.74 1.66"/><g id="MASK-4" data-name="MASK"><path class="cls-2" d="M298.94 88.34l-3.67 9.28-2.44 11.2L298.25 96s.31 0 .33.47a2.8 2.8 0 01-.31 1.04l-5.21 13.22-1.38 2.3s-3.34 3.3-11.04 3.73a26.53 26.53 0 01-12.9-2.33l-.33-1.11-3.58-7.52a.63.63 0 01-.08-.52c.05-.27.38-.03.38-.03l2.65 5.75-1.92-9.25-2.86-4.82a.65.65 0 01-.2-.42c.04-.39.25-.22.25-.22l3.14 4.23s8.93-1.07 15.38-1.73 13.34-1.42 13.34-1.42l4.88-9.93s.29-.1.35.34a.8.8 0 01-.2.56z"/><path class="cls-27" d="M290.6 102.66a83.73 83.73 0 01-10.05 2.22 55.2 55.2 0 01-12.54.24 37.96 37.96 0 0012.2.48 33.19 33.19 0 0010.4-2.94zM291.03 109.67a83.73 83.73 0 01-10.06 2.22 55.2 55.2 0 01-12.53.24 37.96 37.96 0 0012.2.49 33.19 33.19 0 0010.39-2.95z"/></g><path d="M283.67 88.88a1.1 1.1 0 001.15-.94s.32-1.76 1.5-1.8c1.1-.05 1.26.68 1.28.83a1.1 1.1 0 002.2-.34 3.3 3.3 0 00-3.56-2.71c-2.4.09-3.41 2.44-3.61 3.67a1.1 1.1 0 001.04 1.29z"/><path class="cls-29" d="M281.47 78.3a5.14 5.14 0 013.15-1.33 6.92 6.92 0 014.11 1.08l1.26-1.83a9.1 9.1 0 00-5.6-1.45 7.28 7.28 0 00-4.59 2.06z"/><path d="M264.84 91.82a1.1 1.1 0 001.15-1c.01-.06.21-1.74 1.35-1.79a1.32 1.32 0 011.45.98 1.11 1.11 0 001.35.8 1.1 1.1 0 00.8-1.32 3.57 3.57 0 00-3.69-2.67c-2.45.1-3.34 2.51-3.46 3.78a1.11 1.11 0 00.99 1.22h.06z"/><path class="cls-29" d="M264.77 82.29a5.13 5.13 0 012.7-2.09 6.89 6.89 0 014.25-.03l.75-2.08a9.09 9.09 0 00-5.8.04 7.28 7.28 0 00-3.9 3.18z"/><path class="cls-49" d="M286.02 98.17c-3.91-.78-7.73-4.27-7.45-10.31.28-5.9 4.26-8.94 8.08-9.34a10.36 10.36 0 017.06 2.2 9.54 9.54 0 013.1 6.95 9.83 9.83 0 01-3.26 8.25 9.72 9.72 0 01-5.64 2.37 7.28 7.28 0 01-1.89-.12zm.79-18.05c-4.35.45-6.46 4.25-6.63 7.82-.18 3.66 1.66 7.76 6.16 8.66a7.57 7.57 0 006.16-1.9 8.11 8.11 0 002.7-6.92 8.01 8.01 0 00-2.52-5.83 8.82 8.82 0 00-5.85-1.83zM263.51 99.6c-3.91-.78-7.73-4.27-7.45-10.3.28-5.91 4.26-8.95 8.08-9.35a10.36 10.36 0 017.06 2.2 9.54 9.54 0 013.1 6.95 9.83 9.83 0 01-3.26 8.25 9.72 9.72 0 01-5.64 2.37 7.28 7.28 0 01-1.89-.12zm.78-18.05c-4.34.45-6.45 4.25-6.62 7.82-.18 3.66 1.66 7.76 6.16 8.66a7.57 7.57 0 006.16-1.9 8.11 8.11 0 002.7-6.92 8.01 8.01 0 00-2.52-5.83 8.83 8.83 0 00-5.85-1.83z"/><path class="cls-49" transform="rotate(-3.64 276.06 88.45)" d="M273.22 87.64h5.67v1.6h-5.67z"/></g><path class="cls-50" d="M242.73 247.39l76.8 3.14s16.11 55.88-4.13 68.08c-.04.02-80.88-3.64-80.9-3.68-7.27-35.93 8.23-67.54 8.23-67.54z"/><path class="cls-50" d="M201.88 260.78c8.95-9.54 49.42-17.2 49.42-17.2l5.22 55.98-62.46-2.84c-1.91-.09 1.3-29 7.82-35.94z"/></g><path class="cls-21" d="M278.32 281.81a57.1 57.1 0 1159.64-54.45 57.17 57.17 0 01-59.64 54.45zm4.7-103.15a46.15 46.15 0 1044 48.2 46.2 46.2 0 00-44-48.2z"/><g id="HAND_L" data-name="HAND L"><path class="cls-42" d="M225.84 198.18c1.43-5.4 6.86-12.88 13.95-13.13 4.76-.17 8.88 3.5 8.46 7.65 0 0 2.99 1.17 2.52 4.22-1.37 9-5.17 7.15-5.17 7.15s.1.7-1.02 1.21a2.88 2.88 0 01-1.92 0s1.38 1.93.64 3.54a4.77 4.77 0 01-2.26 2.3s.2 1.28-1.83 2.24c-2.24 1.05-5.34-1.59-6.45-2.35-.37-.26-.87 3.62-.97 6.67-6.15-1.39-9.29-6.85-5.95-19.5z"/><path class="cls-47" d="M241.2 201.59a23.8 23.8 0 00-4.98-3.05 1.35 1.35 0 00-1.14 2.45 21.42 21.42 0 014.27 2.58 26.34 26.34 0 012.23 2.54 1.35 1.35 0 002.15-1.64 28.46 28.46 0 00-2.54-2.88zM239.58 207.44a11.04 11.04 0 00-6.16-2.45 1.35 1.35 0 00-.13 2.7 8.37 8.37 0 014.5 1.78 20.1 20.1 0 012.19 2.5 1.35 1.35 0 002.18-1.6 22.31 22.31 0 00-2.58-2.93zM249.6 192.88a1.35 1.35 0 10-2.69-.35 19.11 19.11 0 01-.87 3.69 24.99 24.99 0 00-5.98-5.7 1.35 1.35 0 00-1.53 2.24c2.09 1.42 5.52 4.37 5.86 6.23a11.19 11.19 0 01-.08 4.69 1.35 1.35 0 002.59.79 13.56 13.56 0 00.26-5.17 5.83 5.83 0 001.38-2.04 21.77 21.77 0 001.05-4.38z"/></g><g id="HAND_R" data-name="HAND R"><path class="cls-42" d="M341.12 203.34c-.93-5.52-5.66-13.46-12.7-14.35-4.72-.6-9.16 2.68-9.12 6.85 0 0-3.08.9-2.9 3.97.56 9.09 4.5 7.6 4.5 7.6s-.16.68.91 1.29a2.88 2.88 0 001.92.18s-1.55 1.79-.96 3.46a4.76 4.76 0 002.04 2.5s-.31 1.25 1.62 2.39c2.13 1.25 5.46-1.1 6.64-1.75.4-.23.54 3.68.36 6.73 6.25-.82 9.87-5.98 7.7-18.87z"/><path class="cls-47" d="M328.98 196.78a1.35 1.35 0 00-1.32-2.36 25 25 0 00-6.48 5.12 19.63 19.63 0 01-.53-3.75 1.35 1.35 0 10-2.7.1 21.75 21.75 0 00.65 4.46 5.81 5.81 0 001.19 2.16 13.57 13.57 0 00-.2 5.17 1.35 1.35 0 001.25 1.07 1.35 1.35 0 001.4-1.62 11.2 11.2 0 01.34-4.68c.5-1.82 4.2-4.44 6.4-5.67zM324.72 209.8a26.44 26.44 0 012.46-2.33 21.48 21.48 0 014.49-2.18 1.35 1.35 0 10-.92-2.55 23.84 23.84 0 00-5.23 2.59 28.59 28.59 0 00-2.78 2.63 1.35 1.35 0 001.98 1.84zM332.96 209.43a11.05 11.05 0 00-6.36 1.87 22.62 22.62 0 00-2.83 2.68 1.35 1.35 0 002.02 1.8 20.27 20.27 0 012.4-2.29 8.36 8.36 0 014.65-1.36 1.35 1.35 0 00.12-2.7z"/></g></g></g></g></g></svg>
